<?xml version="1.0" encoding="utf-8"?>
<!-- Generator: Adobe Illustrator 16.0.0, SVG Export Plug-In . SVG Version: 6.00 Build 0)  -->
<!DOCTYPE svg PUBLIC "-//W3C//DTD SVG 1.1//EN" "http://www.w3.org/Graphics/SVG/1.1/DTD/svg11.dtd">
<svg version="1.1" id="Ebene_1" xmlns="http://www.w3.org/2000/svg" xmlns:xlink="http://www.w3.org/1999/xlink" x="0px" y="0px"
	 width="260px" height="75px" viewBox="0 0 260 75" enable-background="new 0 0 260 75" xml:space="preserve">
<g>
	<path fill="#E2001A" d="M129.293,1.649c-50.256,0-91.027,11.343-91.027,25.316c0,13.915,40.771,25.257,91.027,25.257
		c50.265,0,91.039-11.343,91.039-25.257C220.332,12.992,179.559,1.649,129.293,1.649"/>
	<path fill="#FFFFFF" d="M115.315,36.018H101.49c-1.405,0-2.566-1.167-2.566-2.581c0-0.395,0.047-0.783,0.187-1.074l4.168-8.95
		v-0.011c0.383-0.968,0.963-1.694,1.741-2.231c0.824-0.49,1.742-0.737,2.902-0.781h13.735c1.45,0,2.611,1.165,2.611,2.626
		c0,0.386-0.094,0.782-0.292,1.121h0.048l-4.108,8.905C119.043,34.851,117.301,35.962,115.315,36.018"/>
	<path fill="#E2001A" d="M117.591,24.477h-8.799c-0.246,0-0.488,0.095-0.628,0.198c-0.151,0.094-0.29,0.247-0.394,0.434
		l-2.752,5.991c-0.104,0.246-0.104,0.434,0,0.585c0.094,0.14,0.291,0.187,0.536,0.245h8.844c0.384,0,0.732-0.245,0.917-0.644
		l2.811-5.979c0.046-0.048,0.046-0.151,0.046-0.247C118.172,24.769,117.927,24.477,117.591,24.477"/>
	<polygon fill="#FFFFFF" points="155.52,14.5 160.837,14.5 158.955,18.589 153.58,18.589 	"/>
	<path fill="#FFFFFF" d="M71.201,25.258l-5.026,10.76H53.649l9.472-20.547c0.871-1.847,2.716-3.017,4.702-3.017H89.15l-1.94,4.09
		H69.322c-0.779,0.047-1.556,0.49-1.894,1.262l-6.524,14.124h1.881l3.971-8.578c0.871-1.798,2.658-2.964,4.69-3.014h14.022
		l-1.878,4.092H72.468C71.934,24.431,71.446,24.769,71.201,25.258"/>
	<path fill="#FFFFFF" d="M90.216,24.63c-0.197,0.139-0.393,0.337-0.486,0.582L84.75,36.018h-5.375l5.862-12.664h0.046
		c0.871-1.845,2.706-3.015,4.736-3.015h13.503l-1.939,4.092H90.937C90.647,24.431,90.404,24.522,90.216,24.63"/>
	<path fill="#FFFFFF" d="M137.235,36.018l4.979-10.665v-0.246c0-0.34-0.243-0.585-0.578-0.585h-9.486l-5.318,11.495h-5.317
		l7.198-15.584h16.939c1.451,0,2.657,1.167,2.657,2.582c0,0.386-0.092,0.782-0.243,1.121l-5.515,11.881H137.235z"/>
	<polygon fill="#FFFFFF" points="145.546,36.018 152.801,20.339 158.13,20.339 150.875,36.018 	"/>
	<path fill="#FFFFFF" d="M176.603,32.993c-0.873,1.858-2.612,2.968-4.589,3.025h-13.977h-0.011c-1.45,0-2.611-1.167-2.611-2.626
		c0-0.398,0.058-0.738,0.195-1.076l4.215-9.054l1.394-3.013h5.281l-4.887,10.804c-0.093,0.233-0.093,0.432,0,0.585
		c0.047,0.094,0.245,0.233,0.486,0.233h8.938c0.443,0,0.78-0.233,0.977-0.631l5.028-10.992h5.362h0.013l-5.804,12.744H176.603z"/>
	<path fill="#FFFFFF" d="M204.172,24.381h-15.094c-0.288,0-0.476,0.049-0.671,0.141c-0.2,0.107-0.29,0.292-0.384,0.492l-0.532,1.121
		h11.805c1.451,0,2.612,1.169,2.612,2.627c0,0.434-0.06,0.727-0.243,1.123l-0.291,0.631l-1.161,2.429
		c-0.825,1.846-2.612,3.073-4.644,3.073h-0.104h-17.938l1.931-4.146h15.24c0.384,0,0.72-0.234,0.917-0.632l0.534-1.12h-11.806
		c-1.45,0-2.61-1.17-2.61-2.619c0-0.397,0.091-0.784,0.29-1.167v-0.013l1.448-3.107c0.383-0.98,0.966-1.706,1.742-2.195
		c0.827-0.479,1.79-0.725,2.993-0.771h0.013h17.891L204.172,24.381z"/>
	<path fill="#E2001A" d="M60.096,72.912c-0.764,0.34-1.841,0.439-2.655,0.439c-2.605,0-3.834-1.741-3.834-4.31
		c0-2.529,1.629-4.308,4.196-4.308c0.94,0,1.529,0.163,2.067,0.351l-0.075,1.604c-0.539-0.264-0.99-0.477-1.841-0.477
		c-1.528,0-2.28,1.278-2.28,2.83c0,1.403,0.488,2.832,1.991,2.832c0.227,0,0.426-0.039,0.602-0.126V69.82h-0.964v-1.403h2.793
		V72.912z"/>
	<path fill="#E2001A" d="M63.14,73.213v-8.354h3.067c1.353,0,2.58,0.688,2.58,2.142c0,1.104-0.576,1.844-1.665,2.056
		c0.601,0.164,0.889,0.501,1.14,1.314l0.876,2.843h-2.117l-0.665-2.441c-0.188-0.689-0.438-0.901-0.851-0.901h-0.401v3.343H63.14z
		 M65.093,68.403h0.551c0.713,0,1.127-0.399,1.127-1.064c0-0.712-0.438-1.026-1.14-1.026h-0.538V68.403z"/>
	<polygon fill="#E2001A" points="71.756,73.213 71.756,64.859 76.553,64.859 76.553,66.375 73.723,66.375 73.723,68.164 
		76.353,68.164 76.353,69.67 73.723,69.67 73.723,71.697 76.666,71.697 76.666,73.213 	"/>
	<polygon fill="#E2001A" points="79.596,73.213 79.596,64.859 82.151,64.859 84.218,70.945 84.218,64.859 85.909,64.859 
		85.909,73.213 83.342,73.213 81.287,67.137 81.287,73.213 	"/>
	<polygon fill="#E2001A" points="88.801,73.213 88.801,71.674 92.021,66.375 88.902,66.375 88.902,64.859 94.187,64.859 
		94.187,66.401 91.019,71.697 94.226,71.697 94.226,73.213 	"/>
	<polygon fill="#E2001A" points="97.005,73.213 97.005,64.859 101.803,64.859 101.803,66.375 98.973,66.375 98.973,68.164 
		101.602,68.164 101.602,69.67 98.973,69.67 98.973,71.697 101.916,71.697 101.916,73.213 	"/>
	<polygon fill="#E2001A" points="104.846,73.213 104.846,64.859 107.4,64.859 109.467,70.945 109.467,64.859 111.158,64.859 
		111.158,73.213 108.591,73.213 106.536,67.137 106.536,73.213 	"/>
	<polygon fill="#E2001A" points="121.753,73.213 119.386,64.859 121.554,64.859 122.931,70.996 124.259,64.859 126.351,64.859 
		123.996,73.213 	"/>
	<polygon fill="#E2001A" points="128.519,73.213 128.519,64.859 133.315,64.859 133.315,66.375 130.483,66.375 130.483,68.164 
		133.114,68.164 133.114,69.67 130.483,69.67 130.483,71.697 133.428,71.697 133.428,73.213 	"/>
	<path fill="#E2001A" d="M136.106,73.213v-8.354h3.069c1.353,0,2.58,0.688,2.58,2.142c0,1.104-0.576,1.844-1.666,2.056
		c0.602,0.164,0.89,0.501,1.141,1.314l0.875,2.843h-2.116l-0.663-2.441c-0.188-0.689-0.438-0.901-0.852-0.901h-0.402v3.343H136.106z
		 M138.061,68.403h0.551c0.715,0,1.127-0.399,1.127-1.064c0-0.712-0.437-1.026-1.138-1.026h-0.54V68.403z"/>
	<path fill="#E2001A" d="M144.072,71.409c0.639,0.352,1.304,0.514,1.804,0.514c0.915,0,1.228-0.475,1.228-1.014
		c0-0.589-0.538-0.9-1.064-1.164l-0.526-0.25c-1.064-0.503-1.565-1.129-1.565-2.281c0-1.603,1.391-2.479,2.942-2.479
		c0.738,0,1.43,0.1,1.942,0.288l-0.076,1.59c-0.488-0.263-1.113-0.451-1.652-0.451c-0.589,0-1.104,0.288-1.104,0.876
		c0,0.503,0.354,0.767,0.89,1.003l0.514,0.227c1.052,0.475,1.755,1.074,1.755,2.479c0,1.555-1.252,2.606-3.058,2.606
		c-0.714,0-1.464-0.089-2.104-0.34L144.072,71.409z"/>
	<path fill="#E2001A" d="M156.436,73.063c-0.452,0.188-0.966,0.288-1.668,0.288c-2.555,0-4.107-1.703-4.107-4.31
		c0-2.968,2.094-4.308,3.995-4.308c0.803,0,1.378,0.139,1.729,0.325l-0.075,1.592c-0.338-0.239-0.814-0.376-1.402-0.376
		c-1.253,0-2.18,1.063-2.18,2.767c0,1.691,0.89,2.77,2.229,2.77c0.538,0,1.015-0.126,1.402-0.34L156.436,73.063z"/>
	<polygon fill="#E2001A" points="158.736,73.213 158.736,64.859 160.729,64.859 160.729,68.141 162.62,68.141 162.62,64.859 
		164.624,64.859 164.624,73.213 162.62,73.213 162.62,69.706 160.729,69.706 160.729,73.213 	"/>
	<rect x="167.645" y="64.858" fill="#E2001A" width="1.99" height="8.354"/>
	<polygon fill="#E2001A" points="172.653,73.213 172.653,64.859 177.451,64.859 177.451,66.375 174.619,66.375 174.619,68.164 
		177.249,68.164 177.249,69.67 174.619,69.67 174.619,71.697 177.563,71.697 177.563,73.213 	"/>
	<path fill="#E2001A" d="M180.243,73.213v-8.354h3.055c1.254,0,2.42,0.74,2.42,2.079c0,1.054-0.715,1.742-1.503,1.942
		c0.824,0.162,1.664,0.763,1.664,1.967c0,1.464-1.151,2.366-2.556,2.366H180.243z M182.184,68.291h0.54
		c0.662,0,1.064-0.401,1.064-1.064c0-0.666-0.45-0.965-1.064-0.965h-0.54V68.291z M182.184,71.812h0.64
		c0.663,0,1.102-0.34,1.102-1.091c0-0.702-0.438-1.089-1.091-1.089h-0.65V71.812z"/>
	<polygon fill="#E2001A" points="188.521,73.213 188.521,64.859 193.318,64.859 193.318,66.375 190.488,66.375 190.488,68.164 
		193.117,68.164 193.117,69.67 190.488,69.67 190.488,71.697 193.431,71.697 193.431,73.213 	"/>
	<polygon fill="#E2001A" points="196.11,73.213 196.11,64.859 198.667,64.859 200.733,70.945 200.733,64.859 202.424,64.859 
		202.424,73.213 199.856,73.213 197.803,67.137 197.803,73.213 	"/>
</g>
</svg>
