<?xml version="1.0" encoding="UTF-8" standalone="no"?>
<svg
   xmlns:dc="http://purl.org/dc/elements/1.1/"
   xmlns:cc="http://creativecommons.org/ns#"
   xmlns:rdf="http://www.w3.org/1999/02/22-rdf-syntax-ns#"
   xmlns:svg="http://www.w3.org/2000/svg"
   xmlns="http://www.w3.org/2000/svg"
   version="1.1"
   id="svg1672"
   width="2000"
   height="324"
   viewBox="0 0 2000 324">
  <metadata
     id="metadata1678">
    <rdf:RDF>
      <cc:Work
         rdf:about="">
        <dc:format>image/svg+xml</dc:format>
        <dc:type
           rdf:resource="http://purl.org/dc/dcmitype/StillImage" />
        <dc:title></dc:title>
      </cc:Work>
    </rdf:RDF>
  </metadata>
  <defs
     id="defs1676" />
  <path
     style="fill:#000000"
     d="m 466.89587,324.6338 c -30.31392,-6.36959 -52.80721,-17.95691 -70.51217,-36.32403 -12.04431,-12.49476 -16.07638,-21.2485 -20.61647,-44.75901 -2.96465,-88.78002 -1.96565,-131.07157 -2.34204,-240.3780532 h 72.10019 c 0.15584,73.1294222 -5.76952,155.9465432 3.99126,229.3780532 5.24889,20.4384 15.77107,32.82302 33.50874,39.43982 18.37773,6.85556 52.66728,7.95299 75.5,2.41634 18.40232,-4.46232 31.84158,-15.90639 38.13733,-32.47546 8.14069,-81.46709 5.75072,-120.38754 6.36267,-238.7587532 h 73 c 0,0 1.20016,181.3793932 -1.84499,232.7887832 -3.44905,25.51314 -9.10165,39.29984 -21.40452,52.20569 -13.41196,14.0693 -31.72745,25.17813 -52.25045,31.69129 -20.82459,6.60888 -19.9212,6.52491 -73.5,6.83253 -48.07683,0.27604 -49.20968,0.23729 -60.12951,-2.0572 z M 3.5253809,3.1727068 H 76.525381 V 135.05076 H 239.76814 c 0.17149,-43.499998 -0.17149,-88.378055 0,-131.8780532 24.16667,-0.1749907 48.59057,0.1749801 72.75724,0 V 326.05076 h -73 v -134 H 76.525381 v 134 H 3.5253809 Z M 691.51648,325.17576 c 51.2801,-113.33594 90.83919,-200.23007 146.5089,-322.0030532 25.9101,0.165256 51.8202,-0.1652667 77.7303,0 L 1063.1005,325.17576 c -27.0965,3.76163 -42.1763,0 -80.31624,0 -11.3704,-27.47028 -21.79816,-50.66553 -31.75888,-75.12221 -50.66667,-6.7e-4 -101.33333,-0.001 -152,-0.002 l -30.81864,75.12421 c -24.30227,-1.90915 -52.94182,3.49256 -76.69026,0 z M 926.52538,191.51498 C 909.27625,149.04424 893.63071,116.22197 875.33683,71.050765 l -0.9717,-2.5 -50.83975,122.909335 c 33.90527,0.0375 79.5654,2.87011 103,0.0549 z M 1019.5254,3.1727068 c 27.4263,-1.1023455 48.3688,0 77.9385,0 l 80.9499,247.3230132 c 0.2842,-0.28419 15.666,-55.73807 34.1817,-123.23084 L 1246.2606,3.1727068 c 28.7241,-0.1737271 50.7563,0.1737265 86.1723,0 L 1410.53,249.98941 1484.9531,3.1727068 h 77.1939 L 1453.8052,325.93084 c -30.0654,0.17344 -60.1309,-0.17344 -90.1963,0 -26.3699,-78.43129 -46.426,-160.255 -73.9912,-238.134885 -24.029,81.541775 -42.8766,158.248395 -65.371,238.134885 h -89.2291 z M 1703.1419,324.95324 c -57.8352,-6.09998 -99.6323,-37.89616 -116.5889,-88.69234 -6.368,-19.07627 -9.0076,-38.329 -9.0194,-65.78646 -0.01,-22.38459 1.1834,-36.22672 4.6044,-53.42368 11.5591,-58.105985 42.5604,-95.574932 98.4025,-105.883045 75.1264,-13.8678775 95.539,-7.4599285 181.9849,-7.9950082 V 60.050765 c -44.3411,2.111273 -91.4873,-3.11491 -135.5,1.03201 -27.9312,3.15253 -47.6345,15.22938 -57.4572,35.21745 -4.6241,9.409435 -7.8189,20.952815 -8.7181,31.500335 l -0.6182,7.25 h 202.2935 v 56 h -203.3006 l 0.6529,9.96282 c 2.499,38.13379 16.9663,57.81187 48.672,66.2027 58.6051,4.34943 78.56,2.56915 153.9757,2.92003 v 55.91445 c -52.3245,-2.42844 -116.2849,-1.29962 -159.3835,-1.09752 z M 1927.5254,3.1727068 h 75 V 326.05076 h -75 z"
     id="path1682" />
</svg>
