<?xml version="1.0" encoding="UTF-8"?>
<svg id="Layer_2" data-name="Layer 2" xmlns="http://www.w3.org/2000/svg" viewBox="0 0 260.74 49.92">
  <defs>
    <style>
      .cls-1 {
        fill: #0066b3;
      }

      .cls-2 {
        fill: #231f20;
      }
    </style>
  </defs>
  <g id="Layer_1-2" data-name="Layer 1">
    <g>
      <path class="cls-1" d="m16.82,2.51s-4.89-1.92-9.84,2.06C6.98,4.57,1.09,8.52.01,25.17c0,0-.33,2.77,2.12,3.18,0,0,2.46.48,2.79-1.6.32-2.08.26-12.58,4.92-17.97,0,0,.45-.68,1.69-1.21,1.03-.64,1.85-1.8,2.46-2.72,0,0,.91-1.21,2.84-2.33"/>
      <path class="cls-1" d="m25.65,2.12s-4.35-1.38-9.03,2.19c0,0-5.56,3.4-6.85,16.89,0,0-.48,3.33-.22,5.02,0,0,.21,1.97,2.25,2.15,0,0,2.45.19,2.6-2.11.15-2.29.21-3.23.21-3.23,0,0,.39-8.97,4.03-13.52l.88.66s1.24-4.71,6.13-8.06h0Z"/>
      <path class="cls-1" d="m34.47,2.12s-5.82-1.36-10.03,3.22c0,0-4.18,3.73-5.41,12.99,0,0-.52,4.98-.61,7.4,0,0-.04,2.35,2.21,2.65,0,0,2.33.14,2.48-2.32,0,0,.15-11.34,4.35-16.53l1.04.65s1.82-5.24,5.97-8.05h0Z"/>
      <path class="cls-1" d="m41.17,2s-5.86-.24-9.3,5.67c0,0-3.97,5.79-3.96,17.65,0,0-.24,2.81,1.96,3.07,0,0,2.61.16,2.61-2.82,0,0,.12-11.7,4.58-16.43,0,0,3.95,4.74,4.28,15.91,0,0,.14,7.65,1.56,11.87,0,0,1.29-4.73,1.55-11.29,0,0-.11-1.2.93-2.04,0,0,.68-.34.55-1.53,0,0-.96-9.74-4.2-15.26,0,0,6.88-.45,8.24,13.31,0,0,.01,2.01,1.13,3.26,0,0,.82.58.9,1.99,0,0,.2,1.95-.38,8.24,0,0-.14,1.38.47,3.34,0,0,1.7-4.7,1.25-9.31,0,0-.22-3.74,1.64-5,0,0-.16-10.44-4.31-16.15,0,0-3.29-4.74-9.5-4.48h0Z"/>
      <path class="cls-1" d="m61.66,49.27s4.89,1.92,9.84-2.06c0,0,5.88-3.95,6.96-20.6,0,0,.33-2.77-2.12-3.18,0,0-2.46-.48-2.79,1.6-.32,2.08-.26,12.58-4.92,17.96,0,0-.45.68-1.69,1.21-1.03.64-1.85,1.8-2.46,2.72,0,0-.91,1.21-2.84,2.33"/>
      <path class="cls-1" d="m52.83,49.66s4.35,1.38,9.03-2.2c0,0,5.56-3.4,6.85-16.89,0,0,.48-3.33.22-5.02,0,0-.21-1.97-2.25-2.15,0,0-2.45-.19-2.6,2.1-.15,2.29-.21,3.23-.21,3.23,0,0-.39,8.97-4.03,13.52l-.88-.66s-1.24,4.71-6.13,8.06h0Z"/>
      <path class="cls-1" d="m44,49.66s5.82,1.36,10.03-3.22c0,0,4.18-3.73,5.41-12.99,0,0,.52-4.98.61-7.4,0,0,.04-2.35-2.21-2.65,0,0-2.33-.14-2.48,2.32,0,0-.15,11.34-4.35,16.53l-1.04-.65s-1.82,5.24-5.97,8.05h0Z"/>
      <path class="cls-1" d="m37.31,49.79s5.86.24,9.3-5.67c0,0,3.97-5.79,3.96-17.65,0,0,.24-2.81-1.96-3.07,0,0-2.61-.16-2.61,2.82,0,0-.12,11.7-4.58,16.43,0,0-3.95-4.74-4.28-15.91,0,0-.14-7.65-1.56-11.87,0,0-1.29,4.73-1.55,11.29,0,0,.11,1.2-.93,2.04,0,0-.69.34-.55,1.53,0,0,.96,9.74,4.2,15.26,0,0-6.88.45-8.24-13.31,0,0-.01-2.01-1.13-3.26,0,0-.82-.58-.9-1.99,0,0-.2-1.95.38-8.24,0,0,.14-1.38-.47-3.34,0,0-1.7,4.7-1.25,9.31,0,0,.22,3.74-1.64,5,0,0,.16,10.44,4.31,16.16,0,0,3.29,4.74,9.5,4.48h0Z"/>
      <path class="cls-2" d="m86.49,15.5l2.49-7.64c.42-1.32,1.82-1.9,3.02-1.29,1.06.5,1.51,1.68,1.04,2.86l-4.23,10.61c-.64,1.57-1.71,2.16-3.19,1.62-.67-.22-1.12-.7-1.48-1.62l-4.23-10.61c-.48-1.18-.03-2.35,1.04-2.86,1.2-.62,2.6,0,3.02,1.29l2.52,7.64h0Z"/>
      <path class="cls-2" d="m94.36,8.5c0-.59.22-1.15.64-1.54.84-.87,2.21-.84,3.05,0,.39.42.62.98.62,1.54v11.2c.03,1.2-.92,2.16-2.13,2.18-1.2,0-2.18-.98-2.18-2.16v-11.23h0Zm.39-7.78c.98-.98,2.55-.95,3.53.03.95.98.95,2.52,0,3.5-.98.98-2.55.98-3.5.03-.48-.48-.76-1.12-.76-1.79s.28-1.29.73-1.76h0Z"/>
      <path class="cls-2" d="m109.16,6.35c3.22.36,4.28,1.76,3.92,3.19-.22.95-.92,1.51-1.76,1.48-.14-.03-.28-.03-.42-.06l-.22-.08-.39-.14-.28-.08-.39-.14c-2.6-.84-4.7.7-4.68,3.64.06,2.94,2.18,4.37,4.96,3.44l.48-.17.2-.08c1.26-.45,2.38.17,2.58,1.48.17,1.09-.56,2.1-2.58,2.74-.5.17-1.04.28-1.6.34-4.82.45-8.46-2.91-8.4-7.87.06-4.98,3.78-8.23,8.6-7.7h0Z"/>
      <path class="cls-2" d="m116.3,6.52l-.03-2.49c0-1.18.95-2.16,2.16-2.16s2.16.98,2.13,2.16v2.49h1.29c.5,0,1.01.2,1.37.59.76.73.76,1.96,0,2.72-.39.36-.87.56-1.4.56h-1.26v9.3c0,.56-.22,1.12-.62,1.54-.84.84-2.18.84-3,0-.42-.42-.64-.98-.64-1.54l.03-9.32h-.76c-.53,0-1.04-.2-1.43-.59-.76-.73-.76-1.93.03-2.69.36-.36.87-.56,1.4-.56h.73Z"/>
      <path class="cls-2" d="m124.61,8.42c0-1.04.87-1.99,2.18-2.07,1.34-.11,2.16.73,2.1,1.54l-.03.22c.11-.14.22-.28.36-.39,1.65-1.79,3.53-1.76,4.4-.48.76,1.12.36,2.41-.76,2.88l-.22.11-.59.2c-.56.2-.95.39-1.29.59-1.37.81-1.85,1.54-1.85,2.24v6.44c0,1.18-.95,2.16-2.16,2.16s-2.16-.95-2.16-2.13v-11.31h0Z"/>
      <path class="cls-2" d="m134.93,9.9c1.4-2.32,3.78-3.67,6.33-3.67,4.06,0,7.39,3.36,7.42,7.84,0,4.51-3.33,7.87-7.42,7.87s-7.42-3.36-7.42-7.87c0-1.62.36-3,1.09-4.17h0Zm3.25,4.84c.36,2.58,1.87,3.72,3.72,3.3,1.23-.25,2.16-1.37,2.38-3.28.05-.45.05-.9,0-1.34-.25-1.85-1.2-2.94-2.38-3.19-1.79-.39-3.39.73-3.72,3.22-.03.22-.03.45-.03.67s0,.42.03.62h0Z"/>
      <path class="cls-2" d="m150.52,8.53c0-1.06.9-2.07,2.16-2.18,1.15-.11,1.93.62,1.93,1.4v.17c.67-.81,1.6-1.34,2.91-1.57.7-.14,1.4-.14,2.07-.03,2.97.48,4.59,2.44,4.59,5.38v8.04c0,1.2-.95,2.16-2.13,2.18-1.2,0-2.18-.95-2.18-2.16v-7.34c0-.67-.28-1.32-.76-1.79-.98-1.01-2.58-1.01-3.56-.03-.47.5-.73,1.12-.73,1.79v7.34c0,1.18-.98,2.16-2.19,2.13-1.18,0-2.13-.98-2.13-2.16v-11.17h0Z"/>
      <path class="cls-2" d="m178.24,15.45c.11.53.36,1.06.73,1.51,1.15,1.37,3.25,1.71,5.63.45,1.37-.76,1.76-.81,2.49-.53.42.17.76.5.92.92.62,1.51-1.26,4.12-6.52,4.14-5.35,0-8.9-4.42-7.67-9.74.7-3.08,3.02-5.29,5.94-5.82,3.36-.62,6.55,1.09,7.95,4.28.37.87.59,1.76.64,2.44.17,1.74-.39,2.35-1.82,2.35h-8.29Zm5.85-2.77c-.03-.08-.03-.2-.06-.28-.45-2.04-1.9-3-3.55-2.6-1.04.25-1.93,1.15-2.3,2.55-.03.11-.03.22-.05.34h5.96Z"/>
      <path class="cls-2" d="m189.94,8.53c0-1.06.9-2.07,2.16-2.18,1.15-.11,1.93.62,1.93,1.4v.17c.67-.81,1.6-1.34,2.91-1.57.7-.14,1.4-.14,2.07-.03,2.97.48,4.59,2.44,4.59,5.38v8.04c0,1.2-.95,2.16-2.13,2.18-1.2,0-2.18-.95-2.18-2.16v-7.34c0-.67-.28-1.32-.76-1.79-.98-1.01-2.58-1.01-3.56-.03-.47.5-.73,1.12-.73,1.79v7.34c0,1.18-.98,2.16-2.18,2.13-1.18,0-2.13-.98-2.13-2.16v-11.17h0Z"/>
      <path class="cls-2" d="m210.1,15.45c.11.53.37,1.06.73,1.51,1.15,1.37,3.25,1.71,5.63.45,1.37-.76,1.77-.81,2.49-.53.42.17.76.5.92.92.62,1.51-1.26,4.12-6.52,4.14-5.35,0-8.9-4.42-7.67-9.74.7-3.08,3.02-5.29,5.94-5.82,3.36-.62,6.55,1.09,7.95,4.28.36.87.59,1.76.64,2.44.17,1.74-.39,2.35-1.82,2.35h-8.29Zm5.85-2.77c-.03-.08-.03-.2-.05-.28-.45-2.04-1.9-3-3.56-2.6-1.04.25-1.93,1.15-2.29,2.55-.03.11-.03.22-.06.34h5.96Z"/>
      <path class="cls-2" d="m221.8,8.42c0-1.04.87-1.99,2.18-2.07,1.35-.11,2.16.73,2.1,1.54l-.03.22c.11-.14.22-.28.37-.39,1.65-1.79,3.53-1.76,4.39-.48.76,1.12.37,2.41-.76,2.88l-.22.11-.59.2c-.56.2-.95.39-1.29.59-1.37.81-1.85,1.54-1.85,2.24v6.44c0,1.18-.95,2.16-2.16,2.16s-2.16-.95-2.16-2.13v-11.31h0Z"/>
      <path class="cls-2" d="m241.64,7.8c.03-.81.81-1.54,1.96-1.43,1.26.11,2.16,1.12,2.16,2.21v11.23c0,5.6-3.3,8.65-9.13,8.04-1.18-.14-2.24-.42-3.25-.87-2.07-.95-2.44-2.41-1.43-3.47.56-.62,1.26-.76,2.21-.45l.03.03.87.39c.2.08.39.17.59.22,3.67,1.32,5.77-.2,5.85-3,.03-.2,0-.39,0-.59-1.6,2.27-5.54,2.66-8.26-.03-1.74-1.74-2.6-4.59-2.04-7.7.2-1.12.56-2.07,1.06-2.88,2.38-3.84,7.2-4.2,9.38-1.51v-.2h0Zm-5.43,9.16c1.21,1.46,3.42,1.43,4.54-.08.5-.67.76-1.48.78-2.66,0-1.9-.7-3.11-1.82-3.67-1.87-.92-3.97.31-4.31,2.86-.03.25-.06.53-.06.78,0,1.18.34,2.1.87,2.77h0Z"/>
      <path class="cls-2" d="m248.16,6.54c1.2-.5,2.44.06,2.94,1.43l2.69,7.2,2.74-7.22c.53-1.37,1.79-1.93,2.97-1.37,1.06.5,1.51,1.71,1.06,2.8l-6.97,17.08c-.59,1.43-1.76,1.96-2.94,1.48-1.12-.48-1.6-1.68-1.12-2.83l2.02-4.65-4.56-11.17c-.42-1.06.08-2.3,1.18-2.74h0Z"/>
      <path class="cls-2" d="m109.81,28.49c.65,0,.97.25.97.76,0,.57-.35.86-1.06.86-.23,0-.43,0-.58-.02v-1.57c.2-.02.42-.03.67-.03h0Zm1.52,4.46c.35-.29.53-.67.53-1.15,0-.41-.1-.74-.3-.98-.2-.24-.51-.41-.95-.52.23-.05.44-.18.63-.39.19-.21.28-.44.28-.69,0-.43-.15-.77-.44-1s-.71-.35-1.25-.35c-.29,0-.77.02-1.44.05v5.46h1.56c.57,0,1.03-.14,1.38-.43h0Zm-.56-2.05c.2.17.31.43.31.79,0,.38-.11.66-.32.84-.22.18-.56.26-1.02.26-.14,0-.33-.01-.59-.04v-2.08l.6-.02c.48,0,.82.08,1.03.25h0Z"/>
      <polygon class="cls-2" points="122.8 33.38 119.59 33.38 119.59 27.92 120.33 27.92 120.33 32.71 122.8 32.71 122.8 33.38 122.8 33.38"/>
      <path class="cls-2" d="m130.33,31.72v-3.8h.74v3.74c0,.33.11.61.32.82.21.21.49.32.84.32.37,0,.66-.1.87-.31.21-.21.32-.49.32-.85v-3.72h.74v3.8c0,.55-.17.98-.52,1.29-.34.31-.81.46-1.41.46s-1.08-.15-1.41-.46c-.33-.3-.49-.74-.49-1.31h0Z"/>
      <polygon class="cls-2" points="146.69 28.59 144.17 28.59 144.17 30.11 145.98 30.11 145.98 30.74 144.17 30.74 144.17 32.71 146.65 32.71 146.65 33.38 143.43 33.38 143.43 27.92 146.69 27.92 146.69 28.59 146.69 28.59"/>
      <path class="cls-2" d="m164.72,28.55c.99,0,1.48.33,1.48,1,0,.73-.46,1.09-1.39,1.09-.02,0-.19-.01-.5-.04v-2.02c.17-.02.31-.04.41-.04h0Zm.14,2.76c1.4,0,2.1-.61,2.1-1.84,0-1.06-.79-1.59-2.38-1.59-.12,0-.46.01-1.02.04v5.46h.75v-2.1c.28.02.47.04.55.04h0Z"/>
      <path class="cls-2" d="m175.58,29.06c.24-.38.59-.57,1.06-.57,1.04,0,1.57.7,1.57,2.11,0,.7-.13,1.24-.4,1.62-.27.38-.65.58-1.16.58-.45,0-.8-.21-1.05-.63-.25-.42-.37-.94-.37-1.57s.12-1.17.36-1.54h0Zm-.56,3.61c.39.54.93.81,1.62.81.76,0,1.34-.25,1.74-.76.41-.51.61-1.21.61-2.11s-.2-1.56-.61-2.05c-.4-.49-.98-.74-1.74-.74-.67,0-1.21.27-1.61.8-.4.53-.6,1.19-.6,1.98,0,.84.2,1.53.58,2.07h0Z"/>
      <polygon class="cls-2" points="192.62 27.92 190.92 33.46 190.69 33.46 189.39 29.69 188.17 33.46 187.93 33.46 186.21 27.92 186.99 27.92 188.08 31.73 189.28 27.92 189.55 27.92 190.73 31.73 191.85 27.92 192.62 27.92 192.62 27.92"/>
      <polygon class="cls-2" points="203.37 28.59 200.85 28.59 200.85 30.11 202.66 30.11 202.66 30.74 200.85 30.74 200.85 32.71 203.33 32.71 203.33 33.38 200.1 33.38 200.1 27.92 203.37 27.92 203.37 28.59 203.37 28.59"/>
      <path class="cls-2" d="m212.29,28.55c.47,0,.82.07,1.04.2.22.13.33.35.33.66,0,.37-.1.63-.31.77-.2.14-.53.22-.98.22-.17,0-.34-.01-.52-.04v-1.78c.22-.02.37-.04.44-.04h0Zm1.08,2.32c.29-.07.54-.24.75-.51.21-.27.32-.58.32-.93,0-1.04-.66-1.57-1.97-1.57-.16,0-.43,0-.79.03-.36.02-.55.03-.58.03v5.46h.75v-2.38c.36.03.62.04.79.04l1.46,2.35h.85l-1.58-2.51h0Z"/>
    </g>
  </g>
</svg>